<svg width="40" height="40" viewBox="0 0 40 40" fill="none" xmlns="http://www.w3.org/2000/svg" xmlns:xlink="http://www.w3.org/1999/xlink">
<path d="M20,3.439C25.344,3.439 25.977,3.462 28.078,3.556C30.031,3.642 31.086,3.969 31.789,4.241C32.719,4.6 33.391,5.036 34.086,5.729C34.789,6.431 35.219,7.093 35.586,8.02C35.859,8.721 36.188,9.781 36.273,11.72C36.367,13.824 36.391,14.455 36.391,19.776C36.391,25.097 36.367,25.735 36.273,27.831C36.188,29.779 35.859,30.83 35.586,31.532C35.227,32.459 34.789,33.129 34.094,33.822C33.391,34.523 32.727,34.952 31.797,35.318C31.094,35.59 30.031,35.918 28.086,36.003C25.977,36.097 25.344,36.12 20.008,36.12C14.672,36.12 14.031,36.097 11.93,36.003C9.977,35.918 8.922,35.59 8.219,35.318C7.289,34.959 6.617,34.523 5.922,33.83C5.219,33.129 4.789,32.466 4.422,31.539C4.148,30.838 3.82,29.779 3.734,27.839C3.641,25.735 3.617,25.104 3.617,19.784C3.617,14.463 3.641,13.824 3.734,11.728C3.82,9.781 4.148,8.729 4.422,8.028C4.781,7.101 5.219,6.431 5.914,5.737C6.617,5.036 7.281,4.608 8.211,4.241C8.914,3.969 9.977,3.642 11.922,3.556C14.023,3.462 14.656,3.439 20,3.439ZM20,-0.152C14.57,-0.152 13.891,-0.129 11.758,-0.035C9.633,0.058 8.172,0.401 6.906,0.892C5.586,1.406 4.469,2.084 3.359,3.198C2.242,4.304 1.563,5.418 1.047,6.727C0.555,7.997 0.211,9.446 0.117,11.565C0.023,13.699 0,14.377 0,19.791C0,25.206 0.023,25.883 0.117,28.01C0.211,30.129 0.555,31.586 1.047,32.848C1.563,34.165 2.242,35.279 3.359,36.385C4.469,37.491 5.586,38.177 6.898,38.683C8.172,39.174 9.625,39.517 11.75,39.61C13.883,39.704 14.563,39.727 19.992,39.727C25.422,39.727 26.102,39.704 28.234,39.61C30.359,39.517 31.82,39.174 33.086,38.683C34.398,38.177 35.516,37.491 36.625,36.385C37.734,35.279 38.422,34.165 38.93,32.856C39.422,31.586 39.766,30.137 39.859,28.018C39.953,25.891 39.977,25.213 39.977,19.799C39.977,14.385 39.953,13.707 39.859,11.58C39.766,9.461 39.422,8.004 38.93,6.742C38.438,5.418 37.758,4.304 36.641,3.198C35.531,2.091 34.414,1.406 33.102,0.899C31.828,0.409 30.375,0.066 28.25,-0.028C26.109,-0.129 25.43,-0.152 20,-0.152Z" fill="#FFFFFF"/>
<path d="M20,9.547C14.328,9.547 9.727,14.135 9.727,19.791C9.727,25.447 14.328,30.036 20,30.036C25.672,30.036 30.273,25.447 30.273,19.791C30.273,14.135 25.672,9.547 20,9.547ZM20,26.437C16.32,26.437 13.336,23.461 13.336,19.791C13.336,16.122 16.32,13.146 20,13.146C23.68,13.146 26.664,16.122 26.664,19.791C26.664,23.461 23.68,26.437 20,26.437Z" fill="#FFFFFF"/>
</svg>
