<svg width="106" height="106" viewBox="0 0 106 106" fill="none" xmlns="http://www.w3.org/2000/svg" xmlns:xlink="http://www.w3.org/1999/xlink">
<path d="M105.502,51.524C105.502,61.908 102.423,72.058 96.654,80.692C90.885,89.326 82.685,96.056 73.092,100.029C63.498,104.003 52.942,105.043 42.757,103.017C32.573,100.991 23.218,95.991 15.875,88.648C8.533,81.306 3.532,71.951 1.507,61.766C-0.519,51.582 0.521,41.025 4.494,31.432C8.468,21.838 15.197,13.639 23.831,7.87C32.465,2.101 42.616,-0.979 53,-0.979C59.895,-0.979 66.722,0.379 73.092,3.018C79.462,5.656 85.249,9.524 90.125,14.399C95,19.274 98.867,25.062 101.506,31.432C104.144,37.802 105.502,44.629 105.502,51.524ZM82.504,22.391C80.667,20.554 74.473,23.77 72.636,25.607L61.316,36.934L61.217,36.901L29.571,28.3C28.879,28.153 28.162,28.171 27.479,28.353C26.796,28.535 26.165,28.876 25.638,29.348L22.8,32.186C22.586,32.37 22.423,32.604 22.323,32.867C22.224,33.131 22.193,33.415 22.233,33.694C22.272,33.973 22.382,34.237 22.55,34.463C22.719,34.688 22.942,34.868 23.198,34.984L44.246,46.623L47.94,50.317L38.178,60.065C37.181,61.183 36.342,62.433 35.685,63.779L28.53,61.61C27.847,61.445 27.134,61.447 26.452,61.618C25.771,61.789 25.141,62.123 24.617,62.592L23.742,63.46C23.3,63.902 23.052,64.501 23.052,65.125C23.052,65.749 23.3,66.348 23.742,66.79L28.888,71.936L28.987,72.028L32.88,75.928L32.979,76.027L38.119,81.173C38.561,81.613 39.16,81.86 39.783,81.86C40.407,81.86 41.005,81.613 41.448,81.173L42.323,80.298C42.792,79.774 43.126,79.145 43.297,78.463C43.468,77.781 43.471,77.068 43.305,76.385L41.13,69.223C42.475,68.563 43.725,67.722 44.843,66.723L54.592,56.968L58.285,60.655L69.911,81.704C70.027,81.96 70.207,82.183 70.432,82.351C70.658,82.52 70.922,82.629 71.201,82.669C71.48,82.708 71.764,82.677 72.028,82.578C72.291,82.479 72.525,82.315 72.709,82.102L75.547,79.264C76.02,78.736 76.361,78.104 76.543,77.419C76.725,76.735 76.743,76.017 76.595,75.324L68.001,43.692L67.968,43.586L79.288,32.259C81.125,30.422 84.341,24.235 82.504,22.391Z" fill="#73664C"/>
</svg>
