<svg width="106" height="106" viewBox="0 0 106 106" fill="none" xmlns="http://www.w3.org/2000/svg" xmlns:xlink="http://www.w3.org/1999/xlink">
<path d="M105.502,51.524C105.502,61.908 102.423,72.058 96.654,80.692C90.885,89.326 82.685,96.056 73.092,100.029C63.498,104.003 52.942,105.043 42.757,103.017C32.573,100.991 23.218,95.991 15.875,88.648C8.533,81.306 3.532,71.951 1.507,61.766C-0.519,51.582 0.521,41.025 4.494,31.432C8.468,21.838 15.197,13.639 23.831,7.87C32.465,2.101 42.616,-0.979 53,-0.979C59.895,-0.979 66.722,0.379 73.092,3.018C79.462,5.656 85.249,9.524 90.125,14.399C95,19.274 98.867,25.062 101.506,31.432C104.144,37.802 105.502,44.629 105.502,51.524ZM81.131,42.22C81.133,41.719 80.991,41.229 80.723,40.807C80.455,40.384 80.072,40.048 79.618,39.836C79.165,39.625 78.661,39.548 78.165,39.614C77.669,39.68 77.203,39.887 76.821,40.21L76.821,25.959C76.815,24.568 76.26,23.236 75.276,22.253C74.292,21.27 72.959,20.717 71.568,20.713L34.332,20.713C32.941,20.717 31.609,21.27 30.624,22.253C29.64,23.236 29.085,24.568 29.08,25.959L29.08,40.217C28.698,39.897 28.232,39.693 27.738,39.628C27.244,39.563 26.741,39.64 26.289,39.85C25.837,40.06 25.454,40.394 25.185,40.814C24.916,41.234 24.772,41.721 24.769,42.22L24.769,44.388C24.77,44.887 24.914,45.375 25.182,45.796C25.451,46.217 25.834,46.552 26.286,46.763C26.738,46.974 27.241,47.051 27.736,46.987C28.231,46.922 28.697,46.717 29.08,46.397L29.08,52.956C28.534,53.447 28.097,54.047 27.797,54.718C27.498,55.388 27.343,56.114 27.342,56.849L27.342,66.564C26.884,66.675 26.476,66.937 26.184,67.307C25.892,67.677 25.733,68.135 25.731,68.607L25.731,73.421C25.734,73.977 25.957,74.509 26.351,74.901C26.745,75.294 27.277,75.515 27.833,75.517L30.831,75.517L30.831,80.344C30.832,80.901 31.054,81.435 31.448,81.829C31.842,82.223 32.376,82.445 32.933,82.447L37.204,82.447C37.761,82.445 38.294,82.223 38.688,81.829C39.082,81.435 39.304,80.901 39.306,80.344L39.306,75.517L65.7,75.517L65.7,80.344C65.7,80.901 65.92,81.435 66.313,81.829C66.706,82.223 67.239,82.445 67.795,82.447L72.968,82.447C73.244,82.447 73.517,82.392 73.772,82.287C74.027,82.181 74.259,82.026 74.454,81.831C74.649,81.636 74.804,81.404 74.91,81.149C75.016,80.894 75.07,80.621 75.07,80.344L75.07,75.517L78.067,75.517C78.624,75.517 79.158,75.296 79.552,74.903C79.946,74.51 80.168,73.977 80.17,73.421L80.17,68.607C80.168,68.135 80.009,67.677 79.716,67.307C79.424,66.937 79.016,66.675 78.558,66.564L78.558,56.849C78.558,56.114 78.403,55.388 78.103,54.718C77.804,54.047 77.367,53.447 76.821,52.956L76.821,46.397C77.203,46.72 77.669,46.927 78.165,46.993C78.661,47.06 79.165,46.982 79.618,46.771C80.072,46.56 80.455,46.223 80.723,45.801C80.991,45.378 81.133,44.888 81.131,44.388L81.131,42.22ZM35.705,55.529C34.979,55.53 34.269,55.747 33.666,56.151C33.062,56.556 32.592,57.13 32.315,57.802C32.038,58.473 31.967,59.212 32.109,59.924C32.252,60.636 32.602,61.29 33.116,61.803C33.63,62.316 34.285,62.666 34.997,62.807C35.71,62.948 36.448,62.875 37.119,62.597C37.79,62.318 38.363,61.847 38.767,61.243C39.17,60.639 39.385,59.929 39.385,59.203C39.385,58.72 39.29,58.242 39.105,57.796C38.92,57.349 38.649,56.944 38.307,56.603C37.965,56.262 37.559,55.991 37.113,55.807C36.666,55.623 36.188,55.528 35.705,55.529ZM33.284,35.117L50.858,35.117L50.858,51.597L33.284,51.597L33.284,35.117ZM71.27,27.723C71.268,27.028 70.991,26.361 70.499,25.87C70.006,25.379 69.339,25.103 68.644,25.103L37.257,25.103C36.584,25.137 35.95,25.428 35.486,25.916C35.021,26.405 34.762,27.053 34.762,27.726C34.762,28.4 35.021,29.048 35.486,29.536C35.95,30.024 36.584,30.315 37.257,30.349L68.644,30.349C69.34,30.349 70.008,30.072 70.501,29.58C70.993,29.087 71.27,28.419 71.27,27.723ZM55.049,35.117L72.623,35.117L72.623,51.597L55.049,51.597L55.049,35.117ZM70.196,55.529C69.469,55.529 68.759,55.745 68.155,56.148C67.55,56.552 67.08,57.126 66.801,57.797C66.523,58.468 66.451,59.207 66.592,59.92C66.734,60.632 67.084,61.287 67.598,61.801C68.112,62.315 68.766,62.665 69.479,62.806C70.192,62.948 70.93,62.875 71.602,62.597C72.273,62.319 72.847,61.848 73.25,61.244C73.654,60.64 73.87,59.93 73.87,59.203C73.87,58.229 73.483,57.294 72.794,56.605C72.105,55.916 71.17,55.529 70.196,55.529Z" fill="#73664C"/>
</svg>
