<svg width="36" height="44" viewBox="0 0 36 44" fill="none" xmlns="http://www.w3.org/2000/svg" xmlns:xlink="http://www.w3.org/1999/xlink">
<path d="M18,37.799L27.899,27.899C33.367,22.432 33.367,13.568 27.899,8.101C22.432,2.633 13.568,2.633 8.101,8.101C2.633,13.568 2.633,22.432 8.101,27.899L18,37.799ZM18,43.456L5.272,30.728C-1.757,23.698 -1.757,12.302 5.272,5.272C12.302,-1.757 23.698,-1.757 30.728,5.272C37.757,12.302 37.757,23.698 30.728,30.728L18,43.456ZM18,22C20.209,22 22,20.209 22,18C22,15.791 20.209,14 18,14C15.791,14 14,15.791 14,18C14,20.209 15.791,22 18,22ZM18,26C13.582,26 10,22.418 10,18C10,13.582 13.582,10 18,10C22.418,10 26,13.582 26,18C26,22.418 22.418,26 18,26Z" fill="#C2AB80"/>
</svg>
