<svg width="38" height="46" viewBox="0 0 38 46" fill="none" xmlns="http://www.w3.org/2000/svg" xmlns:xlink="http://www.w3.org/1999/xlink">
<path d="M23.94,30.606L23.94,35.772C23.94,36.867 23.62,37.413 22.98,37.413C22.606,37.413 22.236,37.234 21.876,36.875L21.876,29.505C22.236,29.146 22.606,28.967 22.982,28.967C23.62,28.967 23.94,29.513 23.94,30.606ZM32.24,30.63L32.24,31.757L30.028,31.757L30.028,30.63C30.028,29.521 30.396,28.967 31.134,28.967C31.87,28.967 32.238,29.521 32.238,30.63L32.24,30.63ZM8.52,25.293L11.146,25.293L11.146,22.992L3.486,22.992L3.486,25.293L6.066,25.293L6.066,39.226L8.52,39.226L8.52,25.291L8.52,25.293ZM15.59,39.226L17.776,39.226L17.776,27.13L15.59,27.13L15.59,36.384C15.1,37.07 14.634,37.413 14.19,37.413C13.896,37.413 13.724,37.242 13.676,36.899C13.65,36.614 13.642,36.327 13.652,36.041L13.652,27.13L11.466,27.13L11.466,36.703C11.466,37.503 11.532,38.099 11.662,38.49C11.858,39.094 12.334,39.398 13.086,39.398C13.872,39.398 14.706,38.899 15.59,37.902L15.59,39.226ZM26.124,35.602L26.124,30.776C26.124,29.585 26.05,28.778 25.904,28.353C25.624,27.437 25.044,26.981 24.16,26.981C23.34,26.981 22.58,27.421 21.876,28.303L21.876,22.99L19.692,22.99L19.692,39.224L21.876,39.224L21.876,38.047C22.614,38.945 23.376,39.396 24.16,39.396C25.044,39.396 25.626,38.945 25.904,38.047C26.05,37.609 26.124,36.793 26.124,35.602ZM34.424,35.357L34.424,35.038L32.19,35.038C32.19,35.871 32.172,36.368 32.14,36.534C32.026,37.12 31.698,37.413 31.158,37.413C30.404,37.413 30.028,36.851 30.028,35.724L30.028,33.594L34.424,33.594L34.424,31.071C34.424,29.783 34.204,28.837 33.76,28.231C33.122,27.399 32.254,26.983 31.158,26.983C30.044,26.983 29.17,27.399 28.53,28.231C28.072,28.835 27.844,29.783 27.844,31.071L27.844,35.307C27.844,36.597 28.08,37.545 28.556,38.147C29.194,38.981 30.076,39.398 31.208,39.398C32.386,39.398 33.268,38.965 33.858,38.099C34.154,37.658 34.326,37.218 34.374,36.777C34.408,36.629 34.424,36.157 34.424,35.357ZM19.494,13.002L19.494,7.861C19.494,6.734 19.144,6.171 18.44,6.171C17.736,6.171 17.384,6.734 17.384,7.861L17.384,13.002C17.384,14.145 17.736,14.717 18.44,14.717C19.144,14.717 19.494,14.145 19.494,13.002ZM37.148,31.39C37.148,35.209 36.936,38.067 36.51,39.96C36.297,40.895 35.8,41.741 35.086,42.383C34.366,43.037 33.532,43.412 32.582,43.51C29.57,43.853 25.028,44.024 18.954,44.024C12.882,44.024 8.34,43.853 5.328,43.51C4.388,43.417 3.505,43.021 2.81,42.383C2.092,41.747 1.598,40.897 1.4,39.96C0.974,38.131 0.76,35.275 0.76,31.39C0.76,27.571 0.974,24.715 1.4,22.82C1.628,21.857 2.102,21.049 2.824,20.397C3.544,19.743 4.386,19.36 5.352,19.247C8.348,18.919 12.882,18.756 18.954,18.756C25.028,18.756 29.57,18.919 32.582,19.247C33.532,19.36 34.37,19.745 35.098,20.397C35.828,21.049 36.298,21.857 36.51,22.82C36.936,24.649 37.15,27.507 37.15,31.39L37.148,31.39ZM12.644,0.148L15.148,0.148L12.18,9.915L12.18,16.55L9.722,16.55L9.722,9.917C9.494,8.71 8.994,6.979 8.224,4.728C7.62,3.046 7.088,1.519 6.628,0.148L9.232,0.148L10.974,6.588L12.644,0.146L12.644,0.148ZM21.73,8.301L21.73,12.585C21.73,13.908 21.5,14.871 21.042,15.477C20.42,16.309 19.552,16.724 18.44,16.724C17.342,16.724 16.484,16.309 15.86,15.475C15.402,14.857 15.174,13.892 15.174,12.585L15.174,8.301C15.174,6.995 15.402,6.04 15.862,5.438C16.482,4.604 17.342,4.189 18.44,4.189C19.552,4.189 20.42,4.604 21.04,5.438C21.5,6.04 21.73,6.995 21.73,8.301ZM29.954,4.335L29.954,16.552L27.72,16.552L27.72,15.206C26.852,16.219 26.01,16.724 25.192,16.724C24.438,16.724 23.956,16.423 23.742,15.818C23.612,15.427 23.546,14.815 23.546,13.983L23.546,4.333L25.78,4.333L25.78,13.319C25.78,13.858 25.788,14.143 25.806,14.177C25.854,14.536 26.026,14.715 26.32,14.715C26.762,14.715 27.23,14.364 27.72,13.662L27.72,4.335L29.954,4.335Z" clip-rule="evenodd" fill-rule="evenodd" fill="#FFFFFF"/>
</svg>
