<svg width="40" height="42" viewBox="0 0 40 42" fill="none" xmlns="http://www.w3.org/2000/svg" xmlns:xlink="http://www.w3.org/1999/xlink">
<path d="M14.146,17.818C16.227,21.467 19.269,24.501 22.929,26.576L24.894,23.832C25.548,22.92 26.781,22.638 27.768,23.176C30.894,24.879 34.349,25.914 37.953,26.198C39.109,26.289 40,27.251 40,28.407L40,38.297C40,39.433 39.138,40.385 38.005,40.501C36.827,40.622 35.639,40.682 34.444,40.682C15.421,40.682 0,25.304 0,6.335C0,5.143 0.061,3.959 0.182,2.784C0.298,1.654 1.253,0.795 2.393,0.795L12.31,0.795C13.469,0.795 14.434,1.684 14.525,2.836C14.81,6.43 15.848,9.875 17.556,12.993C18.095,13.976 17.812,15.207 16.898,15.858L14.146,17.818ZM8.543,16.362L12.765,13.355C11.568,10.778 10.747,8.045 10.327,5.227L4.465,5.227C4.451,5.595 4.444,5.965 4.444,6.335C4.444,22.857 17.876,36.25 34.444,36.25C34.815,36.25 35.186,36.244 35.556,36.23L35.556,30.384C32.729,29.965 29.989,29.147 27.404,27.953L24.388,32.164C23.168,31.691 21.99,31.135 20.861,30.502L20.732,30.429C16.377,27.96 12.759,24.351 10.282,20.009L10.209,19.88C9.574,18.754 9.017,17.579 8.543,16.362Z" fill="#FFFFFF"/>
</svg>
