<svg width="40" height="36" viewBox="0 0 40 36" fill="none" xmlns="http://www.w3.org/2000/svg" xmlns:xlink="http://www.w3.org/1999/xlink">
<path d="M39.6,8.815C39.438,12.668 36.72,17.981 31.45,24.754C25.998,31.79 21.398,35.308 17.65,35.308C15.326,35.308 13.362,33.16 11.758,28.866C11.038,26.256 9.958,22.323 8.518,17.068C7.338,12.79 6.052,10.652 4.662,10.652C4.366,10.652 3.328,11.272 1.542,12.513L-0.348,10.113C0.046,9.77 0.93,8.982 2.304,7.75C3.68,6.517 4.744,5.576 5.496,4.922C8.05,2.668 10.022,1.478 11.414,1.348C12.968,1.2 14.22,1.653 15.17,2.706C16.12,3.759 16.782,5.419 17.158,7.688C17.878,12.375 18.418,15.418 18.778,16.822C19.678,20.887 20.662,22.919 21.726,22.919C22.56,22.919 23.822,21.603 25.506,18.976C27.16,16.348 28.052,14.341 28.184,12.953C28.396,10.684 27.504,9.551 25.508,9.551C24.574,9.551 23.584,9.762 22.536,10.187C24.5,3.771 28.256,0.654 33.806,0.834C37.914,0.963 39.846,3.626 39.6,8.815Z" clip-rule="evenodd" fill-rule="evenodd" fill="#FFFFFF"/>
</svg>
