<svg width="38" height="36" viewBox="0 0 38 36" fill="none" xmlns="http://www.w3.org/2000/svg" xmlns:xlink="http://www.w3.org/1999/xlink">
<path d="M22.537,16.293L20.829,18L34.972,32.142L32.143,34.971L18.001,20.829L3.859,34.971L1.03,32.142L19.708,13.465C18.533,10.551 19.748,6.354 22.951,3.151C26.856,-0.754 32.238,-1.704 34.972,1.03C37.705,3.763 36.756,9.145 32.85,13.051C29.647,16.254 25.45,17.469 22.537,16.293ZM2.445,-0.384L15.88,13.051L10.223,18.707L2.445,10.929C-0.679,7.805 -0.679,2.74 2.445,-0.384ZM30.022,10.222C32.536,7.708 33.055,4.77 32.143,3.858C31.232,2.947 28.294,3.465 25.779,5.979C23.265,8.494 22.746,11.432 23.658,12.343C24.569,13.255 27.507,12.737 30.022,10.222Z" fill="#C2AB80"/>
</svg>
