<svg width="38" height="38" viewBox="0 0 38 38" fill="none" xmlns="http://www.w3.org/2000/svg" xmlns:xlink="http://www.w3.org/1999/xlink">
<path d="M34.77,-0.729C35.344,-0.729 35.834,-0.523 36.244,-0.116C36.652,0.293 36.858,0.781 36.858,1.354L36.858,34.799C36.858,35.369 36.652,35.86 36.244,36.269C35.834,36.676 35.344,36.879 34.77,36.879L25.17,36.879L25.17,22.312L30.056,22.312L30.792,16.632L25.17,16.632L25.17,13.009C25.17,12.093 25.362,11.407 25.746,10.951C26.132,10.494 26.88,10.266 27.994,10.266L30.988,10.241L30.988,5.173C29.958,5.025 28.5,4.953 26.618,4.953C24.392,4.953 22.612,5.606 21.278,6.912C19.944,8.216 19.278,10.063 19.278,12.444L19.278,16.632L14.364,16.632L14.364,22.312L19.274,22.312L19.274,36.879L1.23,36.879C0.656,36.879 0.166,36.676 -0.244,36.269C-0.442,36.079 -0.598,35.85 -0.704,35.597C-0.809,35.345 -0.862,35.073 -0.858,34.799L-0.858,1.354C-0.858,0.781 -0.652,0.293 -0.244,-0.116C0.166,-0.523 0.656,-0.729 1.23,-0.729L34.77,-0.729Z" clip-rule="evenodd" fill-rule="evenodd" fill="#FFFFFF"/>
</svg>
