<svg width="24" height="28" viewBox="0 0 24 28" fill="none" xmlns="http://www.w3.org/2000/svg" xmlns:xlink="http://www.w3.org/1999/xlink">
<path d="M0.8,28C0.8,22.109 5.814,17.333 12,17.333C18.186,17.333 23.2,22.109 23.2,28L0.8,28ZM13.4,20.111L11.68,20L11.68,25.333L13.4,25.333L19.922,25.333C18.919,22.631 16.436,20.596 13.4,20.111ZM10.6,25.333L11.68,25.333L11.68,20L10.6,20.111C7.564,20.596 5.081,22.631 4.078,25.333L10.6,25.333ZM12,16C7.359,16 3.6,12.42 3.6,8C3.6,3.58 7.359,0 12,0C16.641,0 20.4,3.58 20.4,8C20.4,12.42 16.641,16 12,16ZM12,13.333C15.095,13.333 17.6,10.947 17.6,8C17.6,5.053 15.095,2.667 12,2.667C8.905,2.667 6.4,5.053 6.4,8C6.4,10.947 8.905,13.333 12,13.333Z" fill="#FFFFFF"/>
</svg>
