<svg width="28" height="22" viewBox="0 0 28 22" fill="none" xmlns="http://www.w3.org/2000/svg" xmlns:xlink="http://www.w3.org/1999/xlink">
<path d="M28,8.688L28,20.5L25.2,20.5L25.2,16.563L2.8,16.563L2.8,20.5L0,20.5L0,-0.5L2.8,-0.5L2.8,12.625L14,12.625L14,3.438L22.4,3.438C25.493,3.438 28,5.788 28,8.688ZM25.2,12.625L25.2,8.688C25.2,7.238 23.946,6.063 22.4,6.063L16.8,6.063L16.8,12.625L25.2,12.625ZM8.4,8.688C9.173,8.688 9.8,8.1 9.8,7.375C9.8,6.65 9.173,6.063 8.4,6.063C7.627,6.063 7,6.65 7,7.375C7,8.1 7.627,8.688 8.4,8.688ZM8.4,11.313C6.08,11.313 4.2,9.55 4.2,7.375C4.2,5.2 6.08,3.438 8.4,3.438C10.72,3.438 12.6,5.2 12.6,7.375C12.6,9.55 10.72,11.313 8.4,11.313Z" fill="#FFFFFF"/>
</svg>
