<svg width="32" height="32" viewBox="0 0 32 32" fill="none" xmlns="http://www.w3.org/2000/svg" xmlns:xlink="http://www.w3.org/1999/xlink">
<path d="M16,0.086C7.218,0.086 0.085,7.219 0.085,16.001C0.085,24.782 7.218,31.915 16,31.915C24.781,31.915 31.915,24.782 31.915,16.001C31.915,7.219 24.781,0.086 16,0.086ZM16,1.677C23.922,1.677 30.323,8.079 30.323,16.001C30.323,23.923 23.922,30.324 16,30.324C8.078,30.324 1.677,23.923 1.677,16.001C1.677,8.079 8.078,1.677 16,1.677ZM16,4.462C15.559,4.462 15.204,4.818 15.204,5.258L15.204,16.001C15.204,16.292 15.368,16.548 15.602,16.683C18.465,18.338 21.35,20.001 24.22,21.656C24.604,21.876 25.08,21.749 25.3,21.372C25.52,20.988 25.392,20.512 25.016,20.292L16.796,15.546L16.796,5.258C16.796,4.818 16.44,4.462 16,4.462Z" fill="#73664C"/>
</svg>
