<svg width="38" height="38" viewBox="0 0 38 38" fill="none" xmlns="http://www.w3.org/2000/svg" xmlns:xlink="http://www.w3.org/1999/xlink">
<path d="M36.858,18.076C36.858,21.487 36.014,24.634 34.328,27.516C32.681,30.356 30.315,32.715 27.466,34.356C24.576,36.04 21.422,36.879 18,36.879C16.184,36.879 14.4,36.62 12.648,36.097C13.614,34.578 14.252,33.239 14.562,32.081C14.71,31.526 15.152,29.803 15.888,26.915C16.216,27.552 16.814,28.102 17.68,28.567C18.548,29.033 19.48,29.265 20.48,29.265C22.46,29.265 24.228,28.706 25.784,27.589C27.338,26.471 28.542,24.931 29.392,22.972C30.244,21.014 30.67,18.81 30.67,16.361C30.67,14.5 30.182,12.755 29.21,11.122C28.234,9.491 26.822,8.16 24.974,7.133C23.124,6.104 21.036,5.59 18.712,5.59C16.992,5.59 15.39,5.825 13.9,6.3C12.41,6.772 11.146,7.401 10.106,8.184C9.066,8.968 8.174,9.87 7.43,10.891C6.715,11.853 6.159,12.924 5.784,14.062C5.437,15.121 5.259,16.228 5.256,17.342C5.256,19.038 5.584,20.533 6.238,21.822C6.894,23.112 7.852,24.018 9.112,24.54C9.602,24.735 9.912,24.572 10.044,24.049C10.078,23.936 10.144,23.682 10.242,23.292C10.34,22.899 10.404,22.653 10.438,22.558C10.487,22.374 10.487,22.18 10.44,21.996C10.393,21.812 10.299,21.643 10.168,21.505C9.332,20.507 8.916,19.275 8.916,17.807C8.916,15.342 9.77,13.224 11.482,11.453C13.192,9.682 15.43,8.797 18.196,8.797C20.668,8.797 22.596,9.467 23.978,10.805C25.362,12.141 26.054,13.88 26.054,16.02C26.054,18.794 25.494,21.154 24.372,23.096C23.252,25.039 21.814,26.008 20.062,26.008C19.064,26.008 18.262,25.655 17.656,24.943C17.05,24.233 16.862,23.381 17.092,22.386C17.222,21.814 17.44,21.05 17.742,20.097C18.046,19.139 18.29,18.302 18.478,17.574C18.668,16.848 18.762,16.232 18.762,15.725C18.762,14.909 18.542,14.231 18.098,13.693C17.658,13.154 17.026,12.885 16.208,12.885C15.192,12.885 14.334,13.35 13.628,14.281C12.926,15.21 12.574,16.371 12.574,17.757C12.574,18.95 12.778,19.945 13.188,20.745L10.756,30.98C10.478,32.123 10.372,33.567 10.436,35.314C7.066,33.828 4.34,31.534 2.262,28.433C0.18,25.33 -0.86,21.88 -0.86,18.076C-0.86,14.666 -0.016,11.519 1.67,8.637C3.317,5.796 5.684,3.437 8.534,1.796C11.424,0.113 14.58,-0.729 18,-0.729C21.42,-0.729 24.576,0.113 27.466,1.794C30.315,3.436 32.681,5.796 34.328,8.637C36.014,11.519 36.858,14.664 36.858,18.076Z" clip-rule="evenodd" fill-rule="evenodd" fill="#FFFFFF"/>
</svg>
