<svg width="28" height="28" viewBox="0 0 28 28" fill="none" xmlns="http://www.w3.org/2000/svg" xmlns:xlink="http://www.w3.org/1999/xlink">
<path d="M17.243,13.318L15.931,14.575L26.8,24.985L24.626,27.067L13.757,16.657L2.888,27.067L0.714,24.985L15.069,11.236C14.166,9.091 15.099,6.002 17.561,3.644C20.563,0.769 24.699,0.07 26.8,2.082C28.901,4.095 28.171,8.056 25.17,10.931C22.708,13.289 19.483,14.183 17.243,13.318ZM1.801,1.041L12.127,10.931L7.779,15.095L1.801,9.37C-0.6,7.07 -0.6,3.341 1.801,1.041ZM22.996,8.849C24.929,6.998 25.327,4.835 24.626,4.164C23.926,3.493 21.668,3.875 19.735,5.726C17.803,7.577 17.404,9.74 18.105,10.41C18.805,11.082 21.063,10.7 22.996,8.849Z" fill="#FFFFFF"/>
</svg>
